<svg height="512" viewBox="0 0 512 512" width="512" xmlns="http://www.w3.org/2000/svg"><g id="Flat"><path d="m168 24h320v432h-320z" fill="#348fd9"/><path d="m488 160v294.76h-320v-43.47c123.74-30.87 247.73-128.78 320-251.29z" fill="#3086cd"/><path d="m168 112h320v16h-320z" fill="#2b78b8"/><path d="m200 56h64v32h-64z" fill="#4db7e5"/><circle cx="440" cy="72" fill="#7eb457" r="16"/><g fill="#79c6e8"><path d="m288 64h16v16h-16z"/><path d="m320 64h16v16h-16z"/><path d="m352 64h16v16h-16z"/><path d="m384 64h16v16h-16z"/></g><path d="m456 280a128.01 128.01 0 1 1 -24.65-75.51 127.333 127.333 0 0 1 24.65 75.51z" fill="#d6d6d4"/><circle cx="328" cy="280" fill="#4d5e78" r="96"/><path d="m288.83 239.978-11.191-11.434a72.192 72.192 0 0 1 15.472-11.539l7.762 13.995a56.234 56.234 0 0 0 -12.043 8.978z" fill="#556a8a"/><path d="m271.8 325a72.043 72.043 0 0 1 -6.279-80.8l13.877 7.965a55.983 55.983 0 0 0 -7.398 27.835 55.386 55.386 0 0 0 12.279 35z" fill="#556a8a"/><path d="m456 280a127.333 127.333 0 0 1 -17.6 64.8l-54.4-40.8v-64l47.35-35.51a127.37 127.37 0 0 1 24.65 75.51z" fill="#e0e0de"/><path d="m136 192h96v64h-96z" fill="#f98500"/><path d="m344 264-32 48-32-16v192h-192v-192l-32 24-32-56 64-64 48-8v8a48 48 0 0 0 96 0v-8l48 8z" fill="#ffb531"/><path d="m344 264-32 48-32-16v192h-192v-70.2c85.34-33.13 168.01-90.28 227.93-181.87z" fill="#fcac1f"/><path d="m168 208h32v16h-32z" fill="#ffb531"/><rect fill="#f98500" height="16" rx="8" width="168" x="112" y="448"/><rect fill="#f98500" height="40" rx="8" width="16" x="80" y="256"/><rect fill="#f98500" height="40" rx="8" width="16" x="272" y="256"/></g></svg>